<!-- icon666.com - MILLIONS vector ICONS FREE --><svg xmlns="http://www.w3.org/2000/svg" id="Layer_3" data-name="Layer 3" viewBox="0 0 32 32"><path d="M28.377,5H3.623A2.626,2.626,0,0,0,1,7.623V24.377A2.626,2.626,0,0,0,3.623,27H28.377A2.626,2.626,0,0,0,31,24.377V7.623A2.626,2.626,0,0,0,28.377,5ZM29,24.377a.623.623,0,0,1-.623.623H3.623A.623.623,0,0,1,3,24.377V7.623A.623.623,0,0,1,3.623,7H28.377A.623.623,0,0,1,29,7.623Z"></path><path d="M15,13h4a1,1,0,0,0,0-2H17V10a1,1,0,0,0-2,0v1a3,3,0,0,0,0,6h2a1,1,0,0,1,0,2H13a1,1,0,0,0,0,2h2v1a1,1,0,0,0,2,0V21a3,3,0,0,0,0-6H15a1,1,0,0,1,0-2Z"></path><path d="M8,8H5a1,1,0,0,0,0,2H8A1,1,0,0,0,8,8Z"></path><path d="M27,22H24a1,1,0,0,0,0,2h3a1,1,0,0,0,0-2Z"></path></svg>